<svg width="89" height="24" viewBox="0 0 89 24" fill="none" xmlns="http://www.w3.org/2000/svg">
<g clip-path="url(#clip0_961_5134)">
<path d="M9.45625 0.123047C4.25531 0.123047 0 4.35996 0 9.53842C0 14.7169 4.25531 18.9538 9.45625 18.9538C14.6572 18.9538 18.9125 14.743 18.9125 9.53842C18.9125 4.3338 14.6835 0.123047 9.45625 0.123047ZM9.45625 15.58C6.22537 15.58 3.6249 12.9384 3.6249 9.53842C3.6249 6.13842 6.22537 3.49688 9.45625 3.49688C12.6871 3.49688 15.2876 6.13842 15.2876 9.53842C15.2876 12.9384 12.6871 15.58 9.45625 15.58Z" fill="black"/>
<path d="M28.4739 5.35352C26.7665 5.35352 25.1117 6.03352 24.2448 7.18429V5.61505H20.8301V23.9227H24.2448V17.3058C25.1117 18.3781 26.714 18.9535 28.4739 18.9535C32.1512 18.9535 35.0406 16.0766 35.0406 12.1535C35.0406 8.23044 32.1512 5.35352 28.4739 5.35352ZM27.896 15.9981C25.9522 15.9981 24.2186 14.4812 24.2186 12.1535C24.2186 9.82582 25.9522 8.3089 27.896 8.3089C29.8398 8.3089 31.5733 9.82582 31.5733 12.1535C31.5733 14.4812 29.8398 15.9981 27.896 15.9981Z" fill="black"/>
<path d="M43.0782 5.35352C39.3482 5.35352 36.4062 8.25659 36.4062 12.1535C36.4062 16.0504 38.9805 18.9535 43.1832 18.9535C46.6243 18.9535 48.8307 16.8874 49.5137 14.5597H46.1777C45.7574 15.5274 44.5754 16.2074 43.157 16.2074C41.3971 16.2074 40.0574 14.9781 39.7422 13.2258H49.6713V11.892C49.6713 8.33505 47.1759 5.35352 43.0782 5.35352ZM39.7685 10.8197C40.1362 9.17198 41.5021 8.09967 43.157 8.09967C44.9169 8.09967 46.2565 9.25044 46.4141 10.8197H39.7685Z" fill="black"/>
<path d="M58.7604 5.35352C57.2369 5.35352 55.6346 6.03352 54.8991 7.15813V5.61505H51.4844V18.692H54.8991V11.6566C54.8991 9.61659 56.0024 8.28275 57.7885 8.28275C59.4434 8.28275 60.3365 9.53813 60.3365 11.2904V18.692H63.7512V10.7412C63.7512 7.49813 61.7549 5.35352 58.7604 5.35352Z" fill="black"/>
<path d="M72.4962 0.384766L65.0625 18.6925H68.7137L70.2897 14.6909H78.7478L80.3238 18.6925H84.0275L76.6464 0.384766H72.4962ZM71.4717 11.6571L74.5188 3.994L77.5395 11.6571H71.4717Z" fill="black"/>
<path d="M88.8872 0.384766H85.4199V18.6925H88.8872V0.384766Z" fill="black"/>
</g>
<defs>
<clipPath id="clip0_961_5134">
<rect width="89" height="24" fill="white"/>
</clipPath>
</defs>
</svg>
