<svg width="66" height="24" viewBox="0 0 66 24" fill="none" xmlns="http://www.w3.org/2000/svg">
<g clip-path="url(#clip0_961_5144)">
<path d="M36.8424 0.81543C32.588 0.81543 29.127 4.26235 29.127 8.49975C29.127 12.7372 32.588 16.1836 36.8424 16.1836C41.0968 16.1836 44.5584 12.7367 44.5584 8.49975C44.5584 4.26278 41.0964 0.81543 36.8424 0.81543ZM36.8424 13.3023C34.1833 13.3023 32.0201 11.1475 32.0201 8.49975C32.0201 5.85197 34.1833 3.69716 36.8424 3.69716C39.5015 3.69716 41.6648 5.85154 41.6648 8.49975C41.6648 11.148 39.502 13.3023 36.8424 13.3023Z" fill="black"/>
<path d="M26.19 0.845532C25.9265 0.816126 25.6616 0.800558 25.3967 0.798828C25.2647 0.798828 25.1384 0.80272 25.009 0.804882C24.8796 0.807044 24.7511 0.819152 24.6221 0.826936C24.1023 0.867584 23.5878 0.956233 23.0846 1.09115C22.0733 1.36315 21.0985 1.83623 20.2557 2.50823C19.4003 3.18715 18.7151 4.05418 18.2535 5.04186C18.0234 5.53396 17.8536 6.05202 17.7477 6.58434C17.6951 6.84726 17.6565 7.11277 17.6322 7.38002C17.6235 7.51277 17.6083 7.64596 17.6066 7.77829L17.6018 7.97677L17.5996 8.07623V8.1584L17.6061 10.7318L17.6126 13.3052L17.6304 15.8782H20.524L20.5423 13.3052L20.5488 10.7314L20.5553 8.15796V8.07926L20.5575 8.01786L20.5609 7.89461C20.5609 7.81202 20.5731 7.73245 20.5779 7.65072C20.5935 7.49072 20.6174 7.33158 20.6495 7.17418C20.7129 6.86456 20.8119 6.56315 20.9439 6.27602C21.2101 5.70002 21.6074 5.19407 22.1045 4.79753C22.6065 4.3945 23.2079 4.09353 23.8579 3.9145C24.1866 3.82499 24.5231 3.76575 24.8626 3.73807C24.9486 3.73331 25.0342 3.7251 25.1206 3.72207C25.207 3.71905 25.2951 3.71645 25.3789 3.71688C25.5452 3.71688 25.7089 3.72769 25.8748 3.74283C26.5339 3.80899 27.1727 4.0105 27.7497 4.3344L29.1939 1.83667C28.2712 1.30261 27.2486 0.965748 26.19 0.845532Z" fill="black"/>
<path d="M7.71592 0.777344C3.46109 0.777344 0 4.22426 0 8.46124C0 12.6982 3.46109 16.1456 7.71592 16.1456H10.2534V13.2638H7.71592C5.05682 13.2638 2.89358 11.1095 2.89358 8.46124C2.89358 5.81302 5.05682 3.65864 7.71592 3.65864C10.375 3.65864 12.5496 5.81302 12.5496 8.46124V15.538C12.5496 18.1689 10.3985 20.3116 7.76325 20.3393C6.5023 20.3289 5.2965 19.8243 4.40724 18.9339L2.36124 20.9715C3.77937 22.3912 5.70075 23.199 7.71115 23.2206V23.2219C7.72851 23.2219 7.74588 23.2219 7.76282 23.2219H7.81709V23.2206C12.0111 23.1639 15.4071 19.759 15.4266 15.5726L15.4292 8.2727C15.3285 4.12307 11.9069 0.777344 7.71592 0.777344Z" fill="black"/>
<path d="M53.8776 0.81543C49.6232 0.81543 46.1621 4.26235 46.1621 8.49975C46.1621 12.7372 49.6232 16.1836 53.8776 16.1836H56.5176V13.3023H53.8776C51.2185 13.3023 49.0553 11.1475 49.0553 8.49975C49.0553 5.85197 51.2185 3.69716 53.8776 3.69716C56.3956 3.69716 58.4681 5.62927 58.6808 8.08332H58.6765V22.8379H61.5701V8.49975C61.5692 4.26235 58.132 0.81543 53.8776 0.81543Z" fill="black"/>
<path d="M65.9921 1.20605H65.5797L65.0169 2.07654L64.4359 1.20605H64.0195V2.75589H64.4846V2.00173L64.8971 2.61059H65.122L65.5271 1.9827L65.5345 2.75589H65.9995L65.9921 1.20605Z" fill="black"/>
<path d="M62.3184 1.57622H62.8246V2.75589H63.3348V1.57622H63.8446V1.20605H62.3184V1.57622Z" fill="black"/>
</g>
<defs>
<clipPath id="clip0_961_5144">
<rect width="66" height="24" fill="white"/>
</clipPath>
</defs>
</svg>
