<svg width="214" height="24" viewBox="0 0 214 24" fill="none" xmlns="http://www.w3.org/2000/svg">
<g clip-path="url(#clip0_961_5155)">
<path d="M43.5843 16.6417L33.1227 0.395508H27.4668V23.5832H32.2725V7.33705L42.734 23.5832H48.3899V0.395508H43.5843V16.6417Z" fill="#181818"/>
<path d="M52.3711 4.8632H60.1711V23.5832H65.1616V4.8632H72.9615V0.395508H52.3711V4.8632Z" fill="#181818"/>
<path d="M92.8721 9.6632H81.93V0.432431H76.9395V23.6201H81.93V14.1309H92.8721V23.6201H97.8626V0.395508H92.8721V9.6632Z" fill="#181818"/>
<path d="M108.955 4.86241H115.092C117.532 4.86241 118.825 5.74856 118.825 7.44703C118.825 9.14549 117.532 10.0316 115.092 10.0316H108.955V4.86241ZM123.816 7.48395C123.816 3.0901 120.6 0.431641 115.314 0.431641H103.965V23.6193H108.955V14.5363H114.5L119.491 23.6193H124.999L119.491 13.8347C122.263 12.7639 123.816 10.5486 123.816 7.48395Z" fill="#181818"/>
<path d="M139.065 19.3477C135.147 19.3477 132.744 16.5785 132.744 12.0369C132.744 7.42154 135.147 4.65231 139.065 4.65231C142.947 4.65231 145.312 7.42154 145.312 12.0369C145.312 16.5785 142.947 19.3477 139.065 19.3477ZM139.065 0C132.374 0 127.605 4.98461 127.605 12.0369C127.605 19.0154 132.337 24 139.065 24C145.719 24 150.451 19.0154 150.451 12.0369C150.451 4.98461 145.756 0 139.065 0Z" fill="#181818"/>
<path d="M166.236 10.697H160.1V4.8632H166.236C168.676 4.8632 169.97 5.86012 169.97 7.78012C169.97 9.70012 168.713 10.697 166.236 10.697ZM166.458 0.395508H155.109V23.5832H160.1V15.2017H166.458C171.744 15.2017 174.96 12.4324 174.96 7.81705C174.96 3.20166 171.744 0.395508 166.458 0.395508Z" fill="#181818"/>
<path d="M208.692 15.8031C207.842 18.0554 206.105 19.3477 203.739 19.3477C199.82 19.3477 197.418 16.5785 197.418 12.0369C197.418 7.42154 199.82 4.65231 203.739 4.65231C206.105 4.65231 207.805 5.94462 208.692 8.19692H213.979C212.648 3.21231 208.766 0 203.739 0C197.048 0 192.279 4.98461 192.279 12.0369C192.279 19.0154 197.011 24 203.739 24C208.803 24 212.685 20.7508 213.979 15.8031H208.692Z" fill="#181818"/>
<path d="M176.971 0.395508L186.249 23.5832H191.314L182.035 0.395508H176.971Z" fill="#181818"/>
<path d="M8.7611 14.4263L11.9402 6.26628L15.1194 14.4263H8.7611ZM9.27863 0.395508L0 23.6201H5.17533L7.06063 18.7463H16.7459L18.6312 23.6201H23.8065L14.5649 0.395508H9.27863Z" fill="#181818"/>
</g>
<defs>
<clipPath id="clip0_961_5155">
<rect width="214" height="24" fill="white"/>
</clipPath>
</defs>
</svg>
