<svg width="80" height="30" viewBox="0 0 80 30" fill="none" xmlns="http://www.w3.org/2000/svg">
<g clip-path="url(#clip0_961_5196)">
<path d="M69.4961 22.4612V7.65039H71.8374V17.425L76.7891 11.7368H79.6275L75.173 16.6115L79.669 22.4612H76.8719L73.2304 17.4349L71.8374 17.425V22.4612H69.4961Z" fill="black"/>
<path d="M62.3973 22.7107C58.9166 22.7107 57.0312 20.2422 57.0312 17.0892C57.0312 13.9155 58.9166 11.4678 62.3973 11.4678C65.8988 11.4678 67.7634 13.9155 67.7634 17.0892C67.7634 20.2422 65.8988 22.7107 62.3973 22.7107ZM59.4761 17.0892C59.4761 19.537 60.802 20.7608 62.3973 20.7608C64.0134 20.7608 65.3187 19.537 65.3187 17.0892C65.3187 14.6415 64.0134 13.3969 62.3973 13.3969C60.802 13.3969 59.4761 14.6415 59.4761 17.0892Z" fill="black"/>
<path d="M50.5137 22.4617V13.4383L52.4819 11.7373H56.6671V13.7287H52.8549V22.4617H50.5137Z" fill="black"/>
<path d="M41.5625 22.7352C37.1001 22.7352 34.4395 19.495 34.4395 15.0766C34.4395 10.6168 37.1951 7.29785 41.6495 7.29785C45.1303 7.29785 47.6787 9.08178 48.2795 12.4007H45.6068C45.2132 10.5131 43.6385 9.45517 41.6495 9.45517C38.4382 9.45517 37.0293 12.2348 37.0293 15.0766C37.0293 17.9184 38.4382 20.6774 41.6495 20.6774C44.7159 20.6774 46.0626 18.4578 46.1662 16.6116H41.546V14.4638H48.5282L48.5167 15.5867C48.5167 19.7596 46.8162 22.7352 41.5625 22.7352Z" fill="black"/>
<path d="M12.0346 19.1275L22.1087 11.6819C22.6026 11.3169 23.3085 11.4593 23.5439 12.0263C24.7825 15.0164 24.2291 18.6097 21.7648 21.0769C19.3006 23.544 15.8719 24.0851 12.738 22.8528L9.31445 24.4398C14.2248 27.8001 20.1875 26.9691 23.9136 23.236C26.8692 20.2769 27.7845 16.2435 26.9286 12.6062L26.9364 12.6139C25.6952 7.27055 27.2415 5.13475 30.4091 0.767352C30.484 0.663799 30.559 0.560244 30.634 0.454102L26.4657 4.62733V4.61438L12.0321 19.1301" fill="black"/>
<path d="M9.95432 20.9374C6.42989 17.5667 7.03754 12.3502 10.0448 9.34199C12.2685 7.11555 15.9119 6.20687 19.0923 7.54271L22.5081 5.96351C21.8928 5.51823 21.104 5.03929 20.199 4.70274C16.1084 3.0174 11.211 3.85619 7.88567 7.18286C4.68709 10.3853 3.68122 15.3093 5.40852 19.511C6.69881 22.6513 4.58365 24.8724 2.45299 27.1144C1.69794 27.9092 0.940315 28.704 0.330078 29.5453L9.95168 20.94" fill="black"/>
</g>
<defs>
<clipPath id="clip0_961_5196">
<rect width="80" height="30" fill="white"/>
</clipPath>
</defs>
</svg>
