<svg width="36" height="36" viewBox="0 0 36 36" fill="none" xmlns="http://www.w3.org/2000/svg">
<path d="M13.9035 22.283L25.8718 13.3982C26.4585 12.9626 27.2972 13.1325 27.5768 13.8091C29.0482 17.3772 28.3908 21.6651 25.4632 24.6092C22.5357 27.5533 18.4623 28.199 14.7391 26.7285L10.6719 28.6222C16.5055 32.6321 23.5894 31.6404 28.016 27.1857C31.5273 23.6546 32.6147 18.8415 31.5979 14.5011L31.6071 14.5104C30.1326 8.1341 31.9696 5.58541 35.7328 0.373802C35.8217 0.250232 35.911 0.126661 36 0L31.048 4.97992V4.96448L13.9005 22.2861" fill="white"/>
<path d="M11.4337 24.4422C7.24669 20.4199 7.96859 14.195 11.5413 10.6053C14.1831 7.94847 18.5115 6.86415 22.29 8.45821L26.348 6.57376C25.6168 6.04241 24.6799 5.47087 23.6047 5.06928C18.745 3.05814 12.9267 4.05907 8.9762 8.02881C5.1762 11.8503 3.98123 17.7261 6.03327 22.74C7.56619 26.4873 5.05332 29.1379 2.52206 31.8132C1.62505 32.7616 0.724978 33.71 0 34.7141L11.4307 24.4453" fill="white"/>
</svg>
