<svg width="33" height="32" viewBox="0 0 33 32" fill="none" xmlns="http://www.w3.org/2000/svg">
<mask id="mask0_961_5063" style="mask-type:luminance" maskUnits="userSpaceOnUse" x="-8" y="-8" width="49" height="49">
<path d="M40.1456 -7.92868H-7.87202V40.0889H40.1456V-7.92868Z" fill="white"/>
</mask>
<g mask="url(#mask0_961_5063)">
<mask id="mask1_961_5063" style="mask-type:luminance" maskUnits="userSpaceOnUse" x="0" y="0" width="33" height="32">
<path d="M32.2877 0H0V31.9996H32.2877V0Z" fill="white"/>
</mask>
<g mask="url(#mask1_961_5063)">
<path d="M12.3838 11.6478V8.60782C12.3838 8.35179 12.4799 8.15972 12.7038 8.03181L18.8159 4.51192C19.6479 4.03194 20.6399 3.80806 21.6637 3.80806C25.5036 3.80806 27.9358 6.78409 27.9358 9.95191C27.9358 10.1759 27.9358 10.4319 27.9037 10.6879L21.5677 6.97589C21.1838 6.75194 20.7996 6.75194 20.4157 6.97589L12.3838 11.6478ZM26.6556 23.4877V16.2237C26.6556 15.7755 26.4635 15.4556 26.0796 15.2316L18.0477 10.5597L20.6717 9.05565C20.8956 8.92781 21.0877 8.92781 21.3117 9.05565L27.4237 12.5756C29.1838 13.5997 30.3677 15.7755 30.3677 17.8874C30.3677 20.3193 28.9278 22.5593 26.6556 23.4875V23.4877ZM10.4958 17.0879L7.87188 15.552C7.648 15.4241 7.5519 15.232 7.5519 14.976V7.93611C7.5519 4.51219 10.1759 1.92004 13.7279 1.92004C15.072 1.92004 16.3198 2.3682 17.376 3.16809L11.0721 6.81623C10.6882 7.04011 10.4962 7.3601 10.4962 7.80819V17.0881L10.4958 17.0879ZM16.1438 20.3517L12.3838 18.2398V13.76L16.1438 11.6481L19.9036 13.76V18.2398L16.1438 20.3517ZM18.5598 30.0798C17.2157 30.0798 15.968 29.6317 14.9117 28.8317L21.2156 25.1836C21.5995 24.9597 21.7916 24.6398 21.7916 24.1916V14.9117L24.4477 16.4476C24.6716 16.5755 24.7677 16.7675 24.7677 17.0236V24.0634C24.7677 27.4873 22.1116 30.0795 18.5598 30.0795V30.0798ZM10.9758 22.9439L4.86371 19.4239C3.1036 18.3998 1.91977 16.224 1.91977 14.1121C1.91977 11.6481 3.39177 9.44019 5.66361 8.51212V15.808C5.66361 16.2561 5.85574 16.5761 6.23962 16.8L14.2397 21.4398L11.6157 22.9439C11.3918 23.0717 11.1997 23.0717 10.9758 22.9439ZM10.624 28.1918C7.00803 28.1918 4.35199 25.4718 4.35199 22.1118C4.35199 21.8558 4.38407 21.5998 4.41588 21.3438L10.7198 24.9918C11.1037 25.2158 11.4879 25.2158 11.8717 24.9918L19.9036 20.3521V23.392C19.9036 23.6481 19.8076 23.8401 19.5836 23.968L13.4716 27.4879C12.6396 27.9679 11.6475 28.1918 10.6237 28.1918H10.624ZM18.5598 31.9996C22.4318 31.9996 25.6636 29.2477 26.3999 25.5996C29.9838 24.6716 32.2877 21.3116 32.2877 17.8878C32.2877 15.6477 31.3279 13.4719 29.5998 11.9038C29.7598 11.2318 29.8559 10.5597 29.8559 9.88802C29.8559 5.31215 26.1438 1.88796 21.8558 1.88796C20.992 1.88796 20.16 2.0158 19.3279 2.30398C17.8877 0.895928 15.9038 0 13.7279 0C9.85594 0 6.62416 2.75181 5.88789 6.39988C2.30398 7.32795 0 10.6879 0 14.1118C0 16.3519 0.959884 18.5277 2.68792 20.0957C2.52792 20.7677 2.43189 21.4398 2.43189 22.1115C2.43189 26.6874 6.14391 30.1116 10.4319 30.1116C11.2957 30.1116 12.1278 29.9837 12.9598 29.6956C14.3997 31.1036 16.3837 31.9996 18.5598 31.9996Z" fill="white"/>
</g>
</g>
</svg>
